<svg id="レイヤー_1" data-name="レイヤー 1" xmlns="http://www.w3.org/2000/svg" viewBox="0 0 850.92 185.9"><defs><style>.cls-1{fill:#009bc6;}</style></defs><path class="cls-1" d="M184.86,45.94V220.88a5.33,5.33,0,0,1-5.25,5.25H162a5.53,5.53,0,0,1-3.58-1.47,5.26,5.26,0,0,1-1.68-3.78V76.19L78.08,154.73a5.49,5.49,0,0,1-7.36,0,5.32,5.32,0,0,1,0-7.56l13.87-13.65L44.65,93.62V220.88a5.26,5.26,0,0,1-10.51,0V45.94a5.34,5.34,0,0,1,3.16-4.83,5.41,5.41,0,0,1,5.88,1.06l66.22,66.36,48.13-48.09.64-.63,17.65-17.64A5.2,5.2,0,0,1,180,40.69a4.94,4.94,0,0,1,1.68.42A5.33,5.33,0,0,1,184.86,45.94Z" transform="translate(-34.14 -40.65)"/><path class="cls-1" d="M237.2,63.38A5.2,5.2,0,0,1,232,68.63H214.5a5.2,5.2,0,0,1-5.25-5.25V45.94a5.2,5.2,0,0,1,5.25-5.25H232a5.2,5.2,0,0,1,5.25,5.25Zm0,17.64V220.88a5.2,5.2,0,0,1-5.25,5.25H214.5a5.2,5.2,0,0,1-5.25-5.25V81a5.2,5.2,0,0,1,5.25-5.25H232A5.2,5.2,0,0,1,237.2,81Z" transform="translate(-34.14 -40.65)"/><path class="cls-1" d="M429.54,43.85a5.24,5.24,0,0,1-1.05,5.67L291.86,203.24c5.88,5.88,11.14,11.34,12.4,12.39H407.05a5.25,5.25,0,1,1,0,10.5H302.16a6.09,6.09,0,0,1-3.79-1.47l-17.44-17.43V207l-17.66-17.43a2.9,2.9,0,0,1-.63-.84.21.21,0,0,0-.21-.21c0-.21-.21-.42-.21-.63s0-.21-.21-.42v-.42a.77.77,0,0,1-.21-.63V185a.73.73,0,0,0,.21-.42v-.42c.21-.21.21-.42.42-.63v-.21a2.9,2.9,0,0,1,.63-.84h.21l2.31-2.73c0-.21.21-.42.42-.63l1.69-1.89c.84-1,1.89-2.1,2.94-3.36l1.05-1.26a13.59,13.59,0,0,0,1.68-1.89l.84-1.05c.84-1,1.89-2.1,2.73-3.15l3.16-3.36c.63-.63,1.05-1.47,1.68-2.1l3.15-3.36c0-.21.21-.42.42-.63l2.1-2.52c2.74-2.94,5.47-6.09,8.41-9.45l.21-.21c30.9-35.28,73.57-84,82-93.66H302.16a5.26,5.26,0,1,1,0-10.51H424.71A5.31,5.31,0,0,1,429.54,43.85Z" transform="translate(-34.14 -40.65)"/><path class="cls-1" d="M455.82,189.38c-1.05-.63-1.47-2.1-1.47-3.78V81.23A5.2,5.2,0,0,1,459.61,76a5,5,0,0,1,5.25,5.25V183.5c2.52,2.73,24.17,24.78,29.85,30.45,4.2-4.62,30.06-30.45,47.3-47.67v-85A5,5,0,0,1,547.26,76h17.45A5,5,0,0,1,570,81.23V220.88a4.81,4.81,0,0,1-1.68,3.57c-.42,1.05-2.1,1.68-3.57,1.68H547.26a5,5,0,0,1-5.25-5.25V181.4l-43.52,43.68a4.76,4.76,0,0,1-3.78,1.47,4.61,4.61,0,0,1-3.57-1.47Z" transform="translate(-34.14 -40.65)"/><path class="cls-1" d="M708.91,112.31a5.48,5.48,0,0,1,1.47,3.57v105a5.26,5.26,0,0,1-10.51,0V118.19C697.35,115.67,675.7,93.83,670,88c-4.2,4.41-29.85,30-47.29,47.46v85.47a5.21,5.21,0,0,1-5.26,5.25H600a5.2,5.2,0,0,1-5.25-5.25V45.94A5.2,5.2,0,0,1,600,40.69h17.45a5.21,5.21,0,0,1,5.26,5.25v74.77l43.51-43.89A6.54,6.54,0,0,1,670,75.35a6.09,6.09,0,0,1,3.79,1.47Z" transform="translate(-34.14 -40.65)"/><path class="cls-1" d="M885.06,133.52v.84c0,.21,0,.42-.21.42v.63c-.21.21-.21.21-.21.42-.21.21-.21.42-.42.42a1.59,1.59,0,0,1-.42.84h-.21l-87.44,87.57c-.21.21-.63.21-.84.42l-.21.21h-.22c-.21.21-.42.21-.42.42a8.93,8.93,0,0,1-2.31.42,6,6,0,0,1-3.78-1.47l-17-17.43L736,172.16a5.06,5.06,0,0,1-1.47-3.78A5.39,5.39,0,0,1,736,164.6l87.65-87.36a5.09,5.09,0,0,1,7.36,0l35.1,35.07,17.45,17.43a2.9,2.9,0,0,1,.63.84l.42.42c0,.21,0,.21.21.42a.77.77,0,0,0,.21.63v1.47ZM774.92,195.89l80.08-80c-11.35-11.13-24.17-23.94-27.53-27.51-6.52,6.51-73.78,73.5-80.3,80C750.74,172,763.56,184.76,774.92,195.89Z" transform="translate(-34.14 -40.65)"/></svg>